<svg xmlns="http://www.w3.org/2000/svg" width="111" height="47" viewBox="0 0 111 47" fill="none"><path fill-rule="evenodd" clip-rule="evenodd" d="M7.14644 1.01009C4.48087 1.93167 2.50259 3.82744 1.1632 6.74316C0.559747 8.05664 0.555251 8.15052 0.478034 20.9569L0.400024 33.8483H5.03329H9.66655L9.73875 29.2867L9.8112 24.7251L11.3603 27.8984C12.2121 29.6437 13.1923 31.6963 13.5385 32.46L14.1679 33.8483H19.2216H24.2756L23.7673 32.9889C23.4881 32.5163 21.9794 29.964 20.4153 27.3172L17.5712 22.5049L19.6116 18.7229C20.7337 16.6428 22.0622 14.1972 22.5636 13.2881L23.4754 11.6353L18.4944 11.639L13.5134 11.6427L11.6623 16.0684L9.8112 20.4941L9.74192 10.5114L9.67264 0.528809L9.08082 0.537535C8.75529 0.542295 7.88475 0.754905 7.14644 1.01009ZM46.1588 0.888977C42.4472 1.88988 40.0907 5.14039 39.6494 9.86806L39.4844 11.6353H37.9358H36.3875V15.3375V19.0397H37.9741H39.5608V26.444V33.8483H44.1885H48.8162V26.444V19.0397H50.7995H52.7828V15.3375V11.6353H50.7649H48.7469L48.9045 10.6437C49.1261 9.25006 50.3415 8.19759 51.7293 8.19759H52.7828V4.52371C52.7828 1.41759 52.7183 0.824982 52.3645 0.689324C51.6449 0.413248 47.4189 0.549171 46.1588 0.888977ZM57.4105 0.902199C55.8707 1.58657 54.6278 3.57993 54.6397 5.34639C54.6466 6.37797 55.4129 8.1484 56.1267 8.78253C56.4072 9.03137 57.0747 9.41825 57.6099 9.64196C61.1904 11.1379 64.7802 8.05003 64.0411 4.10986C63.8251 2.95902 62.4878 1.37264 61.3237 0.886068C60.2459 0.435725 58.4432 0.44313 57.4105 0.902199ZM25.5454 22.7418V33.8483H30.1731H34.8008V22.7418V11.6353H30.1731H25.5454V22.7418ZM54.8983 22.7418V33.8483H59.5261H64.1538V22.7418V11.6353H59.5261H54.8983V22.7418ZM65.7404 11.8199C65.7404 11.9217 67.4074 17.0905 69.4452 23.3064L73.1498 34.6081L72.6034 36.0683C71.8424 38.1029 70.782 38.9481 68.6813 39.1953C68.1257 39.2606 67.9366 39.6309 67.0658 42.3599L66.0794 45.4507L67.4304 46.0496C69.4016 46.9233 72.9858 46.9196 74.935 46.0417C76.6174 45.2841 78.4944 43.3151 79.7121 41.03C80.3373 39.8572 89.8045 12.3546 89.8045 11.7115C89.8045 11.6694 87.6779 11.6353 85.0784 11.6353H80.3523L80.182 12.7592C79.2549 18.8868 77.8068 27.4922 77.718 27.4034C77.6566 27.3418 77.1954 24.7508 76.693 21.6452C75.6564 15.2365 75.4845 14.5867 74.5212 13.442C73.3378 12.0357 72.0872 11.6477 68.7154 11.6411C67.0793 11.638 65.7404 11.7184 65.7404 11.8199ZM95.5622 12.0291C94.0948 12.4017 92.0134 13.3399 91.0561 14.0602C90.6208 14.3879 90.6724 14.5473 91.8124 16.3953C92.4854 17.4861 93.1277 18.4775 93.2399 18.5983C93.352 18.7192 93.9533 18.5581 94.5761 18.2403C96.1119 17.457 98.7968 17.5702 100.063 18.4719C100.81 19.0034 101.704 20.4838 101.704 21.1874C101.704 21.3152 100.27 21.4196 98.517 21.4196C91.407 21.4196 88.0957 23.4021 88.1354 27.6353C88.1623 30.5024 89.819 32.6602 92.6184 33.4739C94.2437 33.9464 96.2346 33.8314 97.4484 33.1952C98.319 32.739 99.674 31.3031 100.187 30.2932L100.583 29.5144L101.196 31.4171L101.809 33.3195H106.004H110.2L110.112 26.7745C110.031 20.703 109.981 20.1215 109.425 18.7348C108.21 15.7061 105.493 13.2159 102.385 12.2832C100.407 11.6898 97.3482 11.5758 95.5622 12.0291ZM98.6358 23.913C97.6224 24.3541 96.68 25.6311 96.68 26.563C96.68 26.952 96.9677 27.5491 97.3292 27.9103C99.007 29.5885 101.44 27.7448 101.44 24.7955V23.5351L100.448 23.5455C99.903 23.5513 99.0872 23.7166 98.6358 23.913Z" fill="#364957"></path><circle cx="59.3702" cy="5.02437" r="5.02437" fill="#FF8A00"></circle></svg>